<svg width="30" height="30" viewBox="0 0 30 30" fill="none" xmlns="http://www.w3.org/2000/svg">
<path opacity="0.3" d="M27.5003 15H21.5878C20.7719 14.9792 19.9683 14.7959 19.2241 14.4608C18.48 14.1257 17.8101 13.6456 17.2537 13.0485C16.6973 12.4514 16.2656 11.7493 15.9839 10.9833C15.7021 10.2173 15.5759 9.40282 15.6128 8.5875V2.5H9.47528C7.60539 2.52636 5.82198 3.29197 4.51495 4.62945C3.20792 5.96693 2.48358 7.76749 2.50028 9.6375V20.3625C2.48358 22.2325 3.20792 24.0331 4.51495 25.3706C5.82198 26.708 7.60539 27.4736 9.47528 27.5H20.5003C22.3735 27.4769 24.1614 26.7132 25.4731 25.3757C26.7848 24.0382 27.5136 22.2358 27.5003 20.3625V15Z" fill="#3E97FF"/>
<path d="M27.4992 13.0375H21.5867C21.0185 13.0203 20.4596 12.8887 19.9435 12.6504C19.4274 12.4121 18.9646 12.0722 18.583 11.6509C18.2013 11.2295 17.9086 10.7355 17.7224 10.1984C17.5362 9.6613 17.4603 9.09214 17.4992 8.525V2.5L27.4992 13.0375ZM11.6617 13.5125L11.4992 13.4125H11.3992C11.2933 13.3639 11.1783 13.3384 11.0617 13.3375H10.9617C10.8746 13.3257 10.7863 13.3257 10.6992 13.3375L10.5742 13.4125H10.4492L6.62424 16.5875C6.52639 16.6653 6.44486 16.7617 6.38433 16.8711C6.32381 16.9806 6.28548 17.1008 6.27154 17.2251C6.25761 17.3494 6.26834 17.4752 6.30312 17.5953C6.33791 17.7154 6.39606 17.8274 6.47424 17.925C6.55832 18.0379 6.66771 18.1295 6.79362 18.1925C6.91954 18.2554 7.05847 18.288 7.19924 18.2875C7.41361 18.2859 7.62097 18.2109 7.78674 18.075L10.0867 16.25V22.7375C10.0867 22.9861 10.1855 23.2246 10.3613 23.4004C10.5371 23.5762 10.7756 23.675 11.0242 23.675C11.2729 23.675 11.5113 23.5762 11.6872 23.4004C11.863 23.2246 11.9617 22.9861 11.9617 22.7375V16.3125L13.9617 18.05C14.0544 18.1323 14.1627 18.1951 14.2802 18.2347C14.3976 18.2743 14.5218 18.2899 14.6454 18.2806C14.769 18.2713 14.8895 18.2372 14.9996 18.1804C15.1098 18.1236 15.2074 18.0453 15.2867 17.95C15.4481 17.7558 15.5279 17.5066 15.5092 17.2548C15.4906 17.003 15.375 16.7683 15.1867 16.6L11.6617 13.5125Z" fill="#3E97FF"/>
</svg>
