<svg width="24" height="24" viewBox="0 0 24 24" fill="none" xmlns="http://www.w3.org/2000/svg">
<path fill-rule="evenodd" clip-rule="evenodd" d="M15.3081 7.01118C14.323 6.3519 13.1649 6 11.9802 6V0C14.3496 0 16.6659 0.703788 18.636 2.02237C20.6062 3.34094 22.1417 5.21509 23.0485 7.40778C23.9552 9.60048 24.1925 12.0133 23.7302 14.3411C23.2679 16.6688 22.1269 18.8071 20.4515 20.4853C18.776 22.1635 16.6413 23.3064 14.3174 23.7694C11.9935 24.2324 9.58464 23.9948 7.39556 23.0866C5.20647 22.1783 3.33542 20.6402 2.01903 18.6668C0.702627 16.6934 0 14.3734 0 12H5.9901C5.9901 13.1867 6.34142 14.3467 6.99961 15.3334C7.6578 16.3201 8.59334 17.0891 9.68791 17.5433C10.7824 17.9974 11.9868 18.1162 13.1488 17.8847C14.3108 17.6532 15.3781 17.0818 16.2159 16.2427C17.0536 15.4035 17.6241 14.3344 17.8552 13.1705C18.0863 12.0067 17.9677 10.8002 17.5143 9.70392C17.0609 8.60754 16.2932 7.67046 15.3081 7.01118Z" fill="#51cf66"/>
<path fill-rule="evenodd" clip-rule="evenodd" d="M5.9901 3.17096e-06C5.9901 0.787934 5.83516 1.56815 5.53413 2.29611C5.2331 3.02406 4.79187 3.68549 4.23564 4.24264C3.67941 4.7998 3.01907 5.24175 2.29231 5.54328C1.56556 5.84481 0.786628 6 2.61833e-07 6L0 12C1.57326 12 3.13112 11.6896 4.58463 11.0866C6.03814 10.4835 7.35883 9.59958 8.47125 8.48526C9.58374 7.371 10.4662 6.04812 11.0683 4.5922C11.6703 3.13629 11.9802 1.57586 11.9802 0L5.9901 3.17096e-06Z" fill="#51cf66"/>
</svg>
