<svg width="18" height="19" viewBox="0 0 18 19" fill="none" xmlns="http://www.w3.org/2000/svg">
<path opacity="0.3" d="M16.5 14.6386V14.3536C16.5 13.9936 16.357 13.6483 16.1024 13.3937C15.8478 13.1391 15.5025 12.9961 15.1425 12.9961H6.6075C6.44638 12.9961 6.29186 12.9321 6.17793 12.8182C6.064 12.7042 6 12.5497 6 12.3886V3.85359C6 3.49356 5.85698 3.14828 5.6024 2.8937C5.34782 2.63912 5.00253 2.49609 4.6425 2.49609H4.3575C3.99747 2.49609 3.65218 2.63912 3.3976 2.8937C3.14302 3.14828 3 3.49356 3 3.85359V14.6386C3 14.9986 3.14302 15.3439 3.3976 15.5985C3.65218 15.8531 3.99747 15.9961 4.3575 15.9961H15.1425C15.5025 15.9961 15.8478 15.8531 16.1024 15.5985C16.357 15.3439 16.5 14.9986 16.5 14.6386Z" fill="#7E8299"/>
<path d="M15 5.35359V16.1386C15 16.4986 14.857 16.8439 14.6024 17.0985C14.3478 17.3531 14.0025 17.4961 13.6425 17.4961H13.3575C12.9975 17.4961 12.6522 17.3531 12.3976 17.0985C12.143 16.8439 12 16.4986 12 16.1386V7.60359C12 7.44248 11.936 7.28795 11.8221 7.17403C11.7081 7.0601 11.5536 6.99609 11.3925 6.99609H6V3.99609H13.6425C14.0025 3.99609 14.3478 4.13912 14.6024 4.3937C14.857 4.64828 15 4.99356 15 5.35359ZM2.8575 6.99609H3V3.99609H2.8575C2.49747 3.99609 2.15218 4.13912 1.8976 4.3937C1.64302 4.64828 1.5 4.99356 1.5 5.35359V5.63859C1.5 5.81686 1.53511 5.99339 1.60333 6.15809C1.67155 6.32279 1.77155 6.47244 1.8976 6.59849C2.15218 6.85307 2.49747 6.99609 2.8575 6.99609Z" fill="#7E8299"/>
</svg>
