<svg width="18" height="19" viewBox="0 0 18 19" fill="none" xmlns="http://www.w3.org/2000/svg">
<path opacity="0.3" d="M12.2704 14.0038C12.934 13.3372 13.4033 12.5022 13.6279 11.5888C13.8313 10.7398 14.2616 9.96209 14.8729 9.33883L9.66792 4.11133C9.04466 4.72263 8.26692 5.15298 7.41792 5.35633C6.28184 5.63297 5.27435 6.28941 4.56235 7.21692C3.85035 8.14443 3.47657 9.28734 3.50292 10.4563C3.5147 11.0535 3.40586 11.6469 3.18291 12.2011C2.95997 12.7552 2.6275 13.2587 2.20542 13.6813L1.88292 14.0038C1.74996 14.1433 1.67578 14.3286 1.67578 14.5213C1.67578 14.714 1.74996 14.8993 1.88292 15.0388L3.96792 17.1238C4.10741 17.2568 4.29272 17.331 4.48542 17.331C4.67813 17.331 4.86344 17.2568 5.00292 17.1238L5.32542 16.8013C5.74806 16.3792 6.25152 16.0468 6.80567 15.8238C7.35981 15.6009 7.95323 15.4921 8.55042 15.5038C9.23939 15.5161 9.92378 15.3896 10.5629 15.1319C11.2019 14.8742 11.7826 14.4906 12.2704 14.0038Z" fill="#7E8299"/>
<path d="M14.8719 9.31626L9.66687 4.11126L10.7319 3.05376C10.865 2.91974 11.0233 2.81338 11.1978 2.7408C11.3722 2.66822 11.5592 2.63086 11.7481 2.63086C11.937 2.63086 12.1241 2.66822 12.2985 2.7408C12.4729 2.81338 12.6312 2.91974 12.7644 3.05376L15.9294 6.23376C16.0634 6.3669 16.1698 6.52523 16.2423 6.69964C16.3149 6.87406 16.3523 7.0611 16.3523 7.25001C16.3523 7.43892 16.3149 7.62596 16.2423 7.80037C16.1698 7.97479 16.0634 8.13312 15.9294 8.26626L14.8719 9.31626ZM9.92188 9.06126C9.62229 8.77035 9.23254 8.59016 8.81685 8.55038C8.40116 8.51059 7.98431 8.61359 7.63498 8.8424C7.28566 9.07121 7.02469 9.41218 6.89506 9.80915C6.76544 10.2061 6.7749 10.6354 6.92187 11.0263L2.42188 15.5638L3.45688 16.5988L7.99437 12.0988C8.38525 12.2457 8.81452 12.2552 9.21149 12.1256C9.60845 11.9959 9.94942 11.735 10.1782 11.3857C10.407 11.0363 10.51 10.6195 10.4703 10.2038C10.4305 9.78809 10.2503 9.39835 9.95937 9.09876L9.92188 9.06126Z" fill="#7E8299"/>
</svg>
