<svg width="18" height="19" viewBox="0 0 18 19" fill="none" xmlns="http://www.w3.org/2000/svg">
<path opacity="0.3" d="M15.75 13.7188V3.00879H6.5025C5.57358 3.00879 4.6827 3.3778 4.02586 4.03465C3.36901 4.69149 3 5.58237 3 6.51129V15.0088C5.45388 15.0061 7.84795 14.2511 9.85951 12.8457C11.8711 11.4403 13.4034 9.45201 14.25 7.14879V13.7188C13.964 13.8839 13.7405 14.1387 13.6142 14.4438C13.4878 14.7489 13.4656 15.0871 13.5511 15.4061C13.6366 15.725 13.8249 16.0068 14.0869 16.2079C14.3488 16.4089 14.6698 16.5178 15 16.5178C15.3302 16.5178 15.6512 16.4089 15.9131 16.2079C16.1751 16.0068 16.3634 15.725 16.4489 15.4061C16.5344 15.0871 16.5122 14.7489 16.3858 14.4438C16.2595 14.1387 16.036 13.8839 15.75 13.7188Z" fill="#7E8299"/>
<path d="M16.4991 3.00904C16.4991 2.74946 16.4318 2.49431 16.3037 2.26854C16.1756 2.04277 15.9911 1.85411 15.7682 1.721C15.5454 1.5879 15.2918 1.5149 15.0323 1.50916C14.7728 1.50341 14.5162 1.56511 14.2877 1.68822C14.0591 1.81133 13.8665 1.99164 13.7285 2.21152C13.5905 2.43139 13.512 2.68331 13.5005 2.94264C13.4891 3.20196 13.5451 3.45982 13.6632 3.691C13.7812 3.92218 13.9573 4.11877 14.1741 4.26154C13.8892 6.79505 12.7522 9.15668 10.9495 10.9594C9.14671 12.7622 6.78508 13.8992 4.25156 14.184C4.07224 13.9069 3.8065 13.6966 3.49553 13.5859C3.18456 13.4751 2.84573 13.47 2.53158 13.5714C2.21742 13.6727 1.94547 13.8749 1.75789 14.1465C1.57031 14.4182 1.47757 14.7441 1.49406 15.0738C1.51054 15.4035 1.63533 15.7185 1.84907 15.9701C2.06281 16.2217 2.35357 16.3957 2.67627 16.4652C2.99897 16.5348 3.3356 16.4959 3.63397 16.3547C3.93234 16.2134 4.17578 15.9777 4.32657 15.684C7.23307 15.3803 9.94704 14.0874 12.0141 12.0217C14.0812 9.95595 15.3759 7.24284 15.6816 4.33654C15.9264 4.21144 16.1322 4.02145 16.2763 3.78734C16.4205 3.55322 16.4976 3.28398 16.4991 3.00904Z" fill="#7E8299"/>
</svg>
