<svg width="18" height="19" viewBox="0 0 18 19" fill="none" xmlns="http://www.w3.org/2000/svg">
<path opacity="0.3" d="M13.8004 11.2909H10.9054C10.5022 11.2834 10.1047 11.1948 9.73657 11.0302C9.36844 10.8657 9.03726 10.6286 8.76282 10.3332C8.48838 10.0377 8.27632 9.68999 8.13931 9.31074C8.0023 8.9315 7.94315 8.52852 7.9654 8.1259V5.1709H4.9654C4.50741 5.17384 4.05449 5.26697 3.63249 5.44496C3.21049 5.62295 2.82769 5.88232 2.50593 6.20825C2.18418 6.53419 1.92977 6.92031 1.75724 7.34457C1.58471 7.76882 1.49743 8.22291 1.5004 8.6809V13.9309C1.49346 14.3901 1.5773 14.8462 1.74711 15.273C1.91692 15.6997 2.16936 16.0887 2.48992 16.4177C2.81048 16.7466 3.19286 17.009 3.6151 17.1897C4.03734 17.3705 4.49113 17.466 4.9504 17.4709H10.3654C11.289 17.461 12.171 17.0851 12.8178 16.4256C13.4646 15.7662 13.8234 14.8771 13.8154 13.9534V11.2909H13.8004Z" fill="#7E8299"/>
<path d="M13.802 10.3457H10.907C10.6242 10.3385 10.3457 10.2736 10.0888 10.155C9.83192 10.0363 9.60196 9.86648 9.41305 9.6558C9.22414 9.44512 9.08026 9.19806 8.99024 8.92979C8.90021 8.66152 8.86594 8.37769 8.88953 8.0957V5.1707L13.802 10.3457ZM12.872 2.4707H7.93703C7.30652 2.47369 6.68785 2.64222 6.14293 2.95942C5.59802 3.27663 5.14597 3.7314 4.83203 4.2782C5.01548 4.24801 5.20111 4.23296 5.38703 4.2332H10.637C11.1547 4.23417 11.667 4.33759 12.1445 4.53749C12.622 4.7374 13.0552 5.02984 13.4191 5.39796C13.7831 5.76608 14.0705 6.2026 14.265 6.68234C14.4594 7.16209 14.557 7.67558 14.552 8.1932V13.5782C14.5505 13.8994 14.5102 14.2192 14.432 14.5307C15.0557 14.227 15.5809 13.7532 15.9471 13.1641C16.3133 12.575 16.5057 11.8944 16.502 11.2007V6.1682C16.51 5.1968 16.1323 4.2619 15.4517 3.5687C14.7712 2.87549 13.8434 2.4806 12.872 2.4707Z" fill="#7E8299"/>
</svg>
